<?xml version="1.0" encoding="UTF-8" standalone="no"?>
<svg
   xmlns:dc="http://purl.org/dc/elements/1.1/"
   xmlns:cc="http://creativecommons.org/ns#"
   xmlns:rdf="http://www.w3.org/1999/02/22-rdf-syntax-ns#"
   xmlns:svg="http://www.w3.org/2000/svg"
   xmlns="http://www.w3.org/2000/svg"
   xmlns:sodipodi="http://sodipodi.sourceforge.net/DTD/sodipodi-0.dtd"
   xmlns:inkscape="http://www.inkscape.org/namespaces/inkscape"
   version="1.1"
   id="svg143"
   xml:space="preserve"
   width="508.33823"
   height="500.24133"
   viewBox="0 0 508.33823 500.24133"
   sodipodi:docname="EtzChayimLogo.svg"
   inkscape:version="1.0.1 (3bc2e813f5, 2020-09-07)"><metadata
     id="metadata149"><rdf:RDF><cc:Work
         rdf:about=""><dc:format>image/svg+xml</dc:format><dc:type
           rdf:resource="http://purl.org/dc/dcmitype/StillImage" /><dc:title></dc:title></cc:Work></rdf:RDF></metadata><defs
     id="defs147"><clipPath
       clipPathUnits="userSpaceOnUse"
       id="clipPath159"><path
         d="M 0,792 H 612 V 0 H 0 Z"
         id="path157" /></clipPath><clipPath
       clipPathUnits="userSpaceOnUse"
       id="clipPath167"><path
         d="m 199.975,593.635 h 244.56 V 295.959 h -244.56 z"
         id="path165" /></clipPath></defs><sodipodi:namedview
     pagecolor="#ffffff"
     bordercolor="#666666"
     borderopacity="1"
     objecttolerance="10"
     gridtolerance="10"
     guidetolerance="10"
     inkscape:pageopacity="0"
     inkscape:pageshadow="2"
     inkscape:window-width="1366"
     inkscape:window-height="745"
     id="namedview145"
     showgrid="false"
     inkscape:zoom="0.46780303"
     inkscape:cx="232.48949"
     inkscape:cy="315.21851"
     inkscape:window-x="-8"
     inkscape:window-y="-8"
     inkscape:window-maximized="1"
     inkscape:current-layer="g151"
     inkscape:document-rotation="0"
     fit-margin-top="0"
     fit-margin-left="0"
     fit-margin-right="0"
     fit-margin-bottom="0" /><g
     id="g151"
     inkscape:groupmode="layer"
     inkscape:label="Etz Chayim tree graphic"
     transform="matrix(1.3333333,0,0,-1.3333333,-175.51051,843.21851)"><g
       id="g153"><g
         id="g155"
         clip-path="url(#clipPath159)"><g
           id="g161"><g
             id="g163" /><g
             id="g263"><g
               clip-path="url(#clipPath167)"
               id="g261"><g
                 transform="translate(433.0586,514.8589)"
                 id="g171"><path
                   d="m 0,0 c 5.846,-5.673 8.124,-12.894 5.029,-16.032 -3.094,-3.137 -10.315,-1.074 -16.161,4.599 -5.544,5.373 -7.779,12.078 -5.458,15.431 l 0.344,0.945 C -16.117,4.9 -16.031,4.857 -15.902,4.814 -12.636,7.608 -5.673,5.502 0,0"
                   style="fill:#403c17;fill-opacity:1;fill-rule:nonzero;stroke:none"
                   id="path169" /></g><g
                 transform="translate(444.5352,529.7305)"
                 id="g175"><path
                   d="m 0,0 c -2.021,-1.204 -5.33,-3.052 -10.015,-5.287 -6.963,-3.352 -19.427,1.505 -23.94,3.482 4.298,2.492 16.161,8.682 23.382,6.06 C -5.588,2.493 -2.106,0.988 0,0"
                   style="fill:#49a547;fill-opacity:1;fill-rule:nonzero;stroke:none"
                   id="path173" /></g><g
                 transform="translate(354.748,380.6309)"
                 id="g179"><path
                   d="m 0,0 c -1.547,-1.247 -3.181,-2.45 -4.856,-3.567 -23.468,-15.474 -48.784,-19.557 -52.91,-46.247 1.333,3.954 3.353,7.65 5.502,10.229 6.404,7.951 16.848,13.754 25.402,18.653 C -16.074,-14.656 -6.318,-9.499 0,0 M 5.846,-0.258 5.76,-0.172 c -2.88,-5.072 -6.834,-9.886 -11.476,-14.355 -10.444,-10.058 -46.72,-26.004 -42.293,-43.97 2.192,-8.94 10.659,-16.074 18.697,-19.384 -7.608,4.985 -14.7,12.034 -15.344,19.814 -1.505,17.966 27.464,29.399 38.596,39.886 5.029,4.771 10.057,11.433 11.906,17.923 m 56.218,139.429 -0.343,-0.945 c -9.199,3.008 -20.846,2.965 -31.548,0.816 2.363,-0.473 4.641,-1.418 6.748,-2.88 2.492,1.676 7.65,-0.086 11.948,-4.255 4.728,-4.512 6.748,-9.971 4.513,-12.292 -2.235,-2.321 -7.779,-0.602 -12.507,3.825 -4.298,4.169 -6.361,9.198 -4.857,11.82 -3.955,2.106 -8.596,2.708 -13.023,1.977 -4.342,-1.29 -8.339,-2.923 -11.777,-4.728 -22.608,-12.249 -35.674,-36.748 -31.16,-59.7 1.074,4.427 3.309,8.381 6.748,11.562 -1.29,3.438 2.32,9.24 8.595,13.41 6.791,4.469 14.055,5.415 16.29,2.063 2.235,-3.353 -1.462,-9.757 -8.21,-14.227 -6.318,-4.169 -13.022,-5.243 -15.73,-2.665 -3.868,-4.384 -5.932,-10.057 -6.189,-15.902 2.665,-7.952 7.564,-15.516 15.085,-22.221 10.402,-9.241 14.485,-18.826 14.227,-28.024 7.264,11.261 9.198,24.886 8.511,41.004 -0.129,1.59 -0.172,2.321 -0.172,2.708 l 0.816,0.043 c 1.848,-8.167 2.106,-16.247 0.903,-23.984 1.934,2.321 4.34,4.213 7.134,5.674 -0.257,3.739 4.771,8.252 11.95,10.53 7.736,2.493 15,1.332 16.246,-2.493 C 57.422,46.462 52.179,41.39 44.442,38.94 37.265,36.619 30.517,37.436 28.539,40.617 24.628,38.081 21.533,34.298 19.514,30 c -1.118,-4.083 -2.622,-8.037 -4.6,-11.776 3.224,2.707 7.135,4.513 11.691,4.642 3.267,0.129 3.74,-0.473 6.92,-1.805 V 20.975 L 29.571,20.587 C 21.705,19.642 16.591,15.043 13.539,8.639 10.702,2.88 10.831,-1.677 8.726,-7.178 4.341,-18.524 -6.404,-28.367 -15.086,-35.373 c -5.071,-4.083 -24.671,-14.957 -23.897,-22.178 0.687,-7.135 9.885,-13.969 17.45,-18.052 7.736,-4.041 8.897,-7.005 7.693,-9.069 h -36.447 c -2.536,1.891 -4.814,4.427 -6.103,6.318 -8.424,12.164 -10.316,25.058 -4.642,38.898 8.295,20.114 30.903,26.433 54.069,39.241 5.502,3.095 10.917,15.473 5.545,22.049 -2.794,3.481 -5.975,6.791 -9.499,9.757 -4.47,0.988 -9.197,0.859 -13.453,-0.602 1.333,-3.439 -2.234,-9.284 -8.51,-13.453 -6.705,-4.556 -14.012,-5.545 -16.246,-2.192 -2.236,3.352 1.375,9.714 8.123,14.226 6.232,4.17 12.98,5.33 15.688,2.751 3.481,1.634 7.091,2.278 10.831,2.149 -22.135,16.634 -54.285,22.35 -73.712,-0.301 -0.688,-0.816 -2.708,-3.18 -4.642,-5.931 2.751,-1.504 3.353,-6.877 1.29,-12.335 -2.106,-5.802 -6.362,-9.499 -9.499,-8.339 -3.138,1.161 -3.911,6.791 -1.763,12.508 1.892,5.2 5.588,8.768 8.597,8.553 18.181,30.903 55.359,29.184 82.48,9.413 0.558,-0.387 1.031,-0.774 1.589,-1.161 -0.773,0.86 -1.632,1.719 -2.492,2.708 -18.568,19.255 -38.726,24.843 -51.491,42.078 -2.02,1.031 -3.997,1.934 -6.06,2.794 -3.224,1.203 -6.791,2.106 -10.444,2.665 v -0.043 h -0.43 c -4.986,-0.817 -9.628,-3.138 -12.981,-6.877 2.451,-2.02 2.279,-7.694 -0.472,-13.325 -2.966,-6.06 -7.865,-9.756 -10.831,-8.252 -3.009,1.462 -3.009,7.565 -0.043,13.625 2.751,5.631 7.135,9.241 10.1,8.553 2.278,3.181 5.33,5.459 8.897,6.791 -16.332,0.645 -33.224,-6.189 -36.147,-24.971 -0.472,-5.846 0.86,-11.304 4.814,-15.688 2.45,1.848 7.522,0.429 11.777,-3.396 4.556,-4.126 6.447,-9.413 4.255,-11.862 -2.192,-2.45 -7.693,-1.161 -12.249,2.922 -4.083,3.696 -6.06,8.339 -4.814,11.046 -4.169,3.697 -6.318,8.424 -6.662,13.668 -1.333,-1.891 -3.052,-3.481 -5.072,-4.814 0.559,-3.008 -3.309,-7.221 -9.069,-9.713 -6.189,-2.665 -12.292,-2.321 -13.582,0.73 -1.332,3.095 2.579,7.737 8.811,10.401 5.803,2.494 11.476,2.365 13.239,-0.085 2.492,1.934 4.469,4.47 5.802,7.349 0.172,1.548 0.43,3.138 0.902,4.685 2.794,7.78 7.823,13.324 14.012,16.892 -2.965,0.043 -5.845,0.73 -8.51,2.149 -2.407,-2.02 -7.951,-0.774 -12.937,3.008 -5.416,4.084 -8.167,9.542 -6.103,12.25 1.977,2.622 7.994,1.504 13.409,-2.536 4.943,-3.782 7.737,-8.768 6.405,-11.605 4.34,-1.719 9.197,-1.805 13.711,-0.559 10.143,3.611 22.177,3.224 32.364,0 1.848,-0.73 3.696,-1.547 5.544,-2.363 -3.911,6.231 -6.92,13.925 -8.768,23.982 -1.375,7.737 -2.321,24.585 0,34.342 -3.095,1.074 -4.212,6.49 -2.621,12.336 1.632,5.888 5.587,9.971 8.767,9.069 3.181,-0.86 4.513,-6.448 2.837,-12.336 -1.547,-5.415 -4.943,-9.284 -7.951,-9.241 -1.247,-9.971 0.258,-26.132 1.891,-33.567 4.728,-21.577 15.129,-31.591 27.723,-40.187 -2.021,4.426 -2.794,9.154 -2.15,14.054 L -45,83.382 c -0.216,-5.974 1.762,-11.948 5.157,-16.977 9.843,-6.318 20.674,-12.465 31.075,-22.909 6.103,-6.146 4.341,-4.083 7.952,-9.37 -2.622,6.663 -8.209,10.187 -12.809,15.774 -16.16,19.642 -14.742,43.582 -2.277,62.279 0.73,3.654 0.73,7.479 -0.258,11.132 -3.568,-1.074 -9.027,2.923 -12.809,9.413 -4.083,7.006 -4.555,14.356 -1.031,16.376 3.438,1.977 9.498,-2.063 13.582,-9.112 3.782,-6.533 4.427,-13.281 1.719,-15.817 1.031,-2.751 1.505,-5.502 1.461,-8.296 1.934,2.45 4.127,4.814 6.447,7.049 0.731,1.333 1.505,2.665 2.192,3.997 1.461,3.138 2.665,6.62 3.482,10.187 v 0.043 0.43 c -0.387,4.985 -2.321,9.842 -5.803,13.453 -2.148,-2.278 -7.779,-1.634 -13.194,1.633 -5.717,3.438 -9.027,8.596 -7.308,11.476 1.763,2.836 7.737,2.364 13.539,-1.118 5.416,-3.18 8.64,-7.865 7.651,-10.788 3.051,-2.536 5.029,-5.759 6.146,-9.413 1.935,16.29 -3.481,33.611 -21.877,38.124 -5.76,0.989 -11.347,0.043 -16.031,-3.524 1.59,-2.579 -0.216,-7.522 -4.385,-11.476 -4.427,-4.212 -9.885,-5.674 -12.163,-3.224 -2.278,2.364 -0.516,7.78 3.954,11.949 3.997,3.782 8.811,5.329 11.39,3.911 3.997,3.826 8.94,5.545 14.183,5.459 -1.804,1.504 -3.266,3.352 -4.383,5.501 -3.095,-0.344 -6.92,3.826 -8.941,9.8 -2.105,6.404 -1.289,12.464 1.892,13.496 3.137,1.074 7.478,-3.224 9.628,-9.671 1.933,-5.931 1.418,-11.562 -1.247,-13.195 1.719,-2.665 4.126,-4.771 6.834,-6.361 1.504,-0.301 3.051,-0.731 4.599,-1.246 7.522,-3.482 12.593,-8.94 15.602,-15.43 0.344,2.965 1.246,5.802 2.923,8.338 -1.763,2.536 -0.086,7.951 4.04,12.636 4.512,5.029 10.186,7.307 12.678,5.072 2.536,-2.192 0.904,-8.081 -3.61,-13.109 -4.169,-4.728 -9.369,-7.006 -12.077,-5.545 -2.064,-4.126 -2.579,-8.94 -1.719,-13.496 2.75,-10.444 1.418,-22.393 -2.708,-32.364 -0.258,-0.516 -0.559,-0.989 -0.816,-1.548 3.739,2.966 7.865,5.674 12.292,7.952 13.754,7.049 36.963,10.401 52.092,4.298"
                   style="fill:#544220;fill-opacity:1;fill-rule:nonzero;stroke:none"
                   id="path177" /></g><g
                 transform="translate(420.9385,545.7192)"
                 id="g183"><path
                   d="m 0,0 c -1.505,-2.321 -4.169,-6.061 -8.209,-10.96 -5.889,-7.264 -22.007,-8.295 -28.023,-8.424 3.481,4.943 13.237,17.794 22.564,18.653 C -7.307,-0.129 -2.751,-0.043 0,0"
                   style="fill:#49a547;fill-opacity:1;fill-rule:nonzero;stroke:none"
                   id="path181" /></g><g
                 transform="translate(401.5967,394.6855)"
                 id="g187"><path
                   d="M 0,0 C 4.17,-3.224 6.963,-5.717 8.64,-7.307 6.404,-7.822 2.708,-8.554 -2.492,-9.241 -10.186,-10.272 -20.458,-1.763 -24.197,1.59 -19.255,2.622 -6.06,4.771 0,0"
                   style="fill:#49a547;fill-opacity:1;fill-rule:nonzero;stroke:none"
                   id="path185" /></g><g
                 transform="translate(403.1875,472.437)"
                 id="g191"><path
                   d="m 0,0 c 0,-3.223 -0.129,-8.51 -0.859,-15.859 -0.99,-10.832 -15.904,-22.265 -21.62,-26.305 0.172,7.049 1.375,25.746 9.756,32.622 C -7.006,-4.856 -2.708,-1.805 0,0"
                   style="fill:#49a547;fill-opacity:1;fill-rule:nonzero;stroke:none"
                   id="path189" /></g><g
                 transform="translate(374.8203,393.7402)"
                 id="g195"><path
                   d="m 0,0 c 3.009,-3.009 10.831,-11.305 10.315,-17.881 -0.3,-4.47 -0.73,-7.65 -1.075,-9.627 -1.418,1.375 -3.653,3.654 -6.661,7.006 C -1.806,-15.56 -0.602,-4.256 0,0"
                   style="fill:#49a547;fill-opacity:1;fill-rule:nonzero;stroke:none"
                   id="path193" /></g><g
                 transform="translate(387.6289,553.6704)"
                 id="g199"><path
                   d="m 0,0 c -0.603,-3.353 -1.634,-8.639 -3.611,-16.032 -2.879,-10.831 -19.943,-19.9 -26.433,-23.037 1.332,7.134 5.717,25.96 15.43,31.505 C -7.952,-3.782 -3.095,-1.375 0,0"
                   style="fill:#49a547;fill-opacity:1;fill-rule:nonzero;stroke:none"
                   id="path197" /></g><g
                 transform="translate(372.6709,506.4351)"
                 id="g203"><path
                   d="m 0,0 c 7.393,0.215 12.68,0.043 15.946,-0.172 -2.02,-2.622 -5.33,-6.705 -10.358,-12.12 -7.393,-7.952 -26.176,-7.952 -33.138,-7.694 C -23.166,-14.528 -10.831,-0.344 0,0"
                   style="fill:#49a547;fill-opacity:1;fill-rule:nonzero;stroke:none"
                   id="path201" /></g><g
                 transform="translate(378.4307,453.354)"
                 id="g207"><path
                   d="m 0,0 c 1.289,-5.975 -0.301,-11.433 -3.567,-12.164 h -0.086 l -0.817,-0.043 h -0.086 c -2.965,0.215 -6.103,4.255 -7.22,9.714 -1.247,6.06 0.386,11.476 3.61,12.206 C -4.899,10.358 -1.246,6.017 0,0"
                   style="fill:#403c17;fill-opacity:1;fill-rule:nonzero;stroke:none"
                   id="path205" /></g><g
                 transform="translate(362.8721,447.4653)"
                 id="g211"><path
                   d="m 0,0 c 7.221,-8.037 5.458,-26.777 4.47,-33.697 -5.03,4.9 -17.88,18.525 -17.193,29.313 0.516,7.436 1.16,12.679 1.676,15.86 C -8.64,9.241 -4.943,5.588 0,0"
                   style="fill:#49a547;fill-opacity:1;fill-rule:nonzero;stroke:none"
                   id="path209" /></g><g
                 transform="translate(347.1406,584.23)"
                 id="g215"><path
                   d="m 0,0 c 6.576,-6.533 6.061,-22.694 5.545,-28.711 -4.514,3.954 -16.333,14.957 -16.247,24.327 0.043,6.318 0.301,10.874 0.601,13.668 C -7.951,7.521 -4.556,4.513 0,0"
                   style="fill:#49a547;fill-opacity:1;fill-rule:nonzero;stroke:none"
                   id="path213" /></g><g
                 transform="translate(318.6445,495.2168)"
                 id="g219"><path
                   d="m 0,0 c 4.255,-1.332 5.502,-9.37 2.794,-17.966 -2.493,-7.951 -7.565,-13.538 -11.69,-13.238 l -1.763,0.172 c 0,0.129 0.043,0.301 0.043,0.43 -3.568,2.063 -4.47,9.584 -1.934,17.536 C -9.886,-4.513 -4.212,1.29 0,0"
                   style="fill:#403c17;fill-opacity:1;fill-rule:nonzero;stroke:none"
                   id="path217" /></g><g
                 transform="translate(324.1895,566.2207)"
                 id="g223"><path
                   d="m 0,0 c -5.502,-1.117 -20.502,-3.438 -27.336,1.891 -4.685,3.74 -7.866,6.533 -9.757,8.338 2.536,0.602 6.705,1.419 12.679,2.149 C -15.774,13.539 -4.17,3.783 0,0"
                   style="fill:#49a547;fill-opacity:1;fill-rule:nonzero;stroke:none"
                   id="path221" /></g><g
                 transform="translate(310.1348,436.2046)"
                 id="g227"><path
                   d="m 0,0 c -7.006,-0.215 -25.789,0.086 -33.052,8.124 -4.943,5.544 -8.253,9.627 -10.187,12.249 3.224,0.129 8.51,0.258 15.946,-0.086 C -16.505,19.857 -4.298,5.544 0,0"
                   style="fill:#49a547;fill-opacity:1;fill-rule:nonzero;stroke:none"
                   id="path225" /></g><g
                 transform="translate(308.1572,510.0024)"
                 id="g231"><path
                   d="m 0,0 c 3.138,-12.035 -8.467,-30.129 -12.98,-36.663 -2.622,7.565 -8.596,28.153 -2.278,38.812 4.384,7.264 7.779,12.206 9.928,15.258 C -3.997,13.882 -2.106,8.166 0,0"
                   style="fill:#49a547;fill-opacity:1;fill-rule:nonzero;stroke:none"
                   id="path229" /></g><g
                 transform="translate(288.9019,423.1387)"
                 id="g235"><path
                   d="m 0,0 c 9.198,5.716 27.292,0.859 33.955,-1.204 -5.63,-4.169 -21.189,-14.57 -31.763,-12.077 -7.221,1.676 -12.249,3.223 -15.344,4.255 C -10.573,-7.092 -6.275,-3.955 0,0"
                   style="fill:#49a547;fill-opacity:1;fill-rule:nonzero;stroke:none"
                   id="path233" /></g><g
                 transform="translate(261.2227,435.7319)"
                 id="g239"><path
                   d="M 0,0 C 6.533,4.169 19.556,0.73 24.327,-0.817 20.244,-3.782 9.112,-11.304 1.547,-9.499 -3.61,-8.252 -7.221,-7.178 -9.413,-6.447 -7.608,-5.029 -4.513,-2.794 0,0"
                   style="fill:#49a547;fill-opacity:1;fill-rule:nonzero;stroke:none"
                   id="path237" /></g><g
                 transform="translate(269.3027,543.1831)"
                 id="g243"><path
                   d="m 0,0 c 5.029,-5.888 3.481,-19.255 2.665,-24.241 -3.524,3.654 -12.55,13.582 -11.863,21.319 0.516,5.329 1.118,9.026 1.462,11.346 C -6.06,6.748 -3.396,4.083 0,0"
                   style="fill:#49a547;fill-opacity:1;fill-rule:nonzero;stroke:none"
                   id="path241" /></g><g
                 transform="translate(261.0937,523.1113)"
                 id="g247"><path
                   d="m 0,0 c 8.639,-6.533 10.53,-25.187 10.917,-32.149 -5.889,3.782 -21.189,14.656 -22.522,25.401 -0.988,7.35 -1.333,12.593 -1.461,15.903 C -10.315,7.436 -5.889,4.513 0,0"
                   style="fill:#49a547;fill-opacity:1;fill-rule:nonzero;stroke:none"
                   id="path245" /></g><g
                 transform="translate(251.8096,496.3774)"
                 id="g251"><path
                   d="m 0,0 c 10.96,-1.977 21.447,-18.224 25.144,-24.456 -7.221,0.774 -26.347,3.567 -32.665,12.765 -4.341,6.318 -7.135,10.961 -8.769,13.926 C -12.937,1.934 -7.521,1.333 0,0"
                   style="fill:#49a547;fill-opacity:1;fill-rule:nonzero;stroke:none"
                   id="path249" /></g><g
                 transform="translate(228.2563,434.3135)"
                 id="g255"><path
                   d="m 0,0 c 1.59,-5.373 5.201,-20.115 0.387,-27.378 -3.31,-4.986 -5.845,-8.339 -7.522,-10.402 -0.73,2.493 -1.891,6.533 -3.18,12.379 C -12.078,-16.849 -3.438,-4.47 0,0"
                   style="fill:#49a547;fill-opacity:1;fill-rule:nonzero;stroke:none"
                   id="path253" /></g><g
                 transform="translate(236.5518,463.6265)"
                 id="g259"><path
                   d="m 0,0 c -3.567,-4.857 -13.582,-17.493 -22.866,-18.224 -6.361,-0.473 -10.874,-0.516 -13.711,-0.516 1.634,2.321 4.342,5.931 8.382,10.788 C -22.178,-0.774 -6.061,0 0,0"
                   style="fill:#49a547;fill-opacity:1;fill-rule:nonzero;stroke:none"
                   id="path257" /></g></g></g></g><g
           id="g265"
           transform="translate(143.0464,478.0259)"><path
             d="m 0,0 c 0.05,0.76 0.109,1.516 0.159,2.271 -1.188,-5.677 -2.056,-11.352 -2.703,-17.085 0,0.216 -0.054,0.378 -0.107,0.592 -0.109,-0.754 -0.162,-1.566 -0.218,-2.324 -3.243,2.001 1.62,27.524 2.489,31.094 0.269,2.542 1.242,5.409 1.461,7.895 0.161,0.542 0.377,1.136 0.539,1.678 1.838,7.783 3.84,14.977 6.594,22.547 6.059,15.952 12.388,26.66 23.094,40.07 C 44.88,96.581 17.194,55.269 15.681,52.563 15.142,50.454 13.572,46.886 12.705,44.775 8.921,34.826 6.323,26.173 3.57,16.007 1.188,2.543 1.022,-11.949 0.539,-25.63 c 0,-1.678 -0.057,-3.3 -0.057,-4.92 -0.432,1.62 -0.644,3.242 -0.862,4.92 C -1.249,-16.926 -0.867,-8.705 0,0 m 128.807,-191.535 c 1.031,-0.165 2.11,-0.379 3.192,-0.541 h 0.54 c -0.54,0.162 -1.029,0.322 -1.568,0.484 -0.323,0.108 -0.648,0.219 -0.971,0.329 -0.704,0.48 -1.623,0.913 -2.437,1.24 0.377,-0.051 0.757,-0.109 1.083,-0.109 -0.326,0.109 -0.649,0.218 -0.976,0.327 0.38,0.053 0.76,0.053 1.137,0.109 -5.461,1.944 -10.707,4.055 -16.061,6.376 -9.517,4.168 -18.279,8.33 -28.065,11.849 1.133,-1.248 2.323,-2.437 3.569,-3.571 7.625,-5.085 14.385,-8.708 22.926,-12.009 6.003,-2.212 11.251,-3.673 17.631,-4.484 m -0.539,7.136 c -2.436,0.758 -1.839,0.649 0,0 3.622,-0.323 7.081,-1.242 10.812,-1.353 -8.27,2.491 -15.681,5.357 -23.574,8.871 -4.869,2.323 -37.694,21.631 -39.154,20.222 12.06,-10.163 23.685,-16.544 38.126,-22.655 4.598,-1.84 9.083,-3.517 13.79,-5.085 m 192.185,56.457 c -0.105,-0.111 -0.269,-0.219 -0.433,-0.323 1.948,2.379 3.678,4.973 5.406,7.462 0.869,1.349 1.68,2.92 2.544,4.215 1.029,2.977 2.762,7.68 3.136,10.709 -1.238,0.432 -29.957,-34.124 -33.583,-37.909 -3.408,-3.569 -6.871,-7.03 -10.38,-10.491 -13.088,-12.491 -25.524,-19.79 -42.065,-26.982 -8.66,-3.622 -16.933,-6.439 -25.907,-9.089 -2.652,-0.754 -6.816,-1.564 -9.196,-2.483 -1.835,-0.812 -3.677,-1.623 -5.565,-2.382 14.056,0.973 28.982,5.681 41.906,11.085 6.862,3.031 13.355,6.277 19.626,10.33 13.952,7.516 24.551,14.652 36.291,25.305 7.025,6.601 12.541,12.762 18.22,20.553 m -89.877,276.003 c -0.542,0.162 -1.079,0.325 -1.62,0.487 6.92,-2.271 14.06,-4.813 20.495,-8.218 0.378,-0.217 0.705,-0.378 1.087,-0.595 -0.223,0.053 -0.382,0.053 -0.6,0.108 -0.109,0.052 2.106,-1.027 0.919,-0.813 1.187,-0.539 2.27,-1.299 3.459,-1.888 -0.538,0.105 -0.106,-0.273 -0.697,-0.164 3.568,-1.894 7.676,-4.706 10.699,-7.356 0.223,-0.107 3.954,-2.541 3.14,-2.328 4.705,-2.971 8.054,-6.161 11.572,-10.379 -9.138,3.784 -18.171,8.814 -27.523,12.814 -0.327,0.164 -0.65,0.382 -0.969,0.542 -0.441,0.218 -0.923,0.488 -1.414,0.705 -1.08,0.378 -2.108,0.755 -3.136,1.135 -0.273,0.052 -0.701,0.214 -0.97,0.268 -12.168,5.409 -65.704,18.82 -65.054,19.577 11.354,4.328 38.88,-0.326 50.612,-3.895 M 360.034,-1.565 c 0.65,-1.679 1.087,-3.841 1.678,-5.627 0.164,-1.889 0.651,-5.08 1.083,-6.974 0.437,-3.895 0.647,-7.572 0.702,-11.464 -0.265,-26.715 -6.385,-46.453 -17.247,-70.463 -4.378,-9.354 -9.029,-18.115 -14.011,-27.092 -7.673,-14.329 -10.594,-20.712 -22.384,-32.932 -0.975,-1.029 -1.948,-1.948 -2.977,-2.92 -7.081,-6.491 -15.302,-12.274 -23.466,-17.414 7.572,8.002 15.68,14.923 23.412,23.363 3.354,3.73 6.544,7.519 9.625,11.463 0.654,0.702 1.246,1.408 1.897,2.108 0.596,0.706 1.242,1.411 1.838,2.111 6.053,8.76 11.954,17.631 16.495,27.306 2.321,5.085 4.324,10.114 6.217,15.413 4.919,14.6 7.299,26.388 9.947,41.423 1.625,9.356 2.762,18.168 3.518,27.634 0.109,2.107 -0.219,32.986 3.673,24.065 m -148.221,-201.27 c 11.463,1.62 22.712,4.321 33.634,8.109 1.569,0.541 3.089,1.133 4.599,1.781 7.841,3.461 29.42,14.606 33.961,21.576 -0.054,1.032 -22.875,-10.652 -25.309,-11.892 -3.568,-1.679 -7.081,-3.354 -10.654,-4.978 -8.759,-3.946 -16.6,-7.026 -25.952,-9.406 -11.63,-2.599 -23.689,-3.408 -34.665,-6.277 0.214,-0.051 0.382,-0.106 0.592,-0.212 0.601,0.05 1.138,0.05 1.733,0.05 -0.213,-0.05 -0.377,-0.11 -0.595,-0.162 0.218,0 0.431,-0.05 0.595,-0.109 0.919,0 1.834,0.059 2.812,0.059 -0.163,-0.059 -0.377,-0.109 -0.541,-0.22 6.435,0.111 15.249,0.432 21.519,1.622 0.168,0.109 0.329,0.161 0.542,0.221 -0.591,0.049 -3.19,-0.544 -2.271,-0.162 m 47.858,2.862 c 6.108,2.703 11.841,5.95 17.575,9.249 1.083,0.919 2.757,1.943 3.949,2.756 1.029,1.028 2.002,2.054 3.026,3.085 -2.056,-0.869 -4.163,-1.624 -6.165,-2.542 -5.893,-3.299 -11.95,-6.114 -18.166,-8.762 -2.33,-1.189 -4.6,-2.437 -7.035,-3.46 -0.046,-0.055 -0.373,-0.164 -0.428,-0.217 -2.54,-1.784 -5.461,-3.083 -8.113,-4.703 1.355,0.212 2.702,0.433 4.112,0.701 0.92,0.324 1.839,0.649 2.754,0.972 -0.159,-0.161 -0.323,-0.269 -0.482,-0.378 0.537,0.166 1.078,0.378 1.62,0.599 0.378,0.106 0.76,0.268 1.133,0.377 -0.159,-0.109 -0.373,-0.218 -0.541,-0.328 0.382,0.166 0.709,0.272 1.032,0.378 1.947,0.76 3.837,1.461 5.729,2.273 m -5.678,28.229 c 1.514,0.863 10.707,6.653 11.034,7.625 -0.327,-0.109 -0.651,-0.271 -0.978,-0.381 -5.566,-2.429 -10.812,-5.298 -16.651,-7.73 -1.683,-0.867 -3.354,-1.732 -5.032,-2.542 -2.112,-1.028 -4.974,-2.436 -7.19,-3.189 -1.029,-0.761 -2.867,-1.41 -4.109,-1.894 -1.134,-0.758 -2.275,-1.516 -3.459,-2.275 5.406,1.409 10.54,2.816 15.837,4.708 0.541,0.161 1.032,0.381 1.573,0.593 1.348,0.649 4.328,2.11 5.406,3.029 0.483,0.217 0.924,0.486 1.407,0.703 0.213,0.106 2.379,0.975 2.162,1.353 m -87.767,-24.01 c 1.625,0.27 1.788,-0.057 3.3,-0.217 -0.597,-0.107 -1.134,-0.161 -1.675,-0.271 3.732,-0.379 7.84,-0.323 11.517,-0.214 4.651,0.104 9.088,0.431 13.629,0.972 2.434,0.92 4.869,1.891 7.299,2.922 -5.515,-0.271 -13.301,1.567 -20.928,1.619 -2.812,0 -5.679,-0.052 -8.492,0 -5.51,-1.027 -18.224,-1.84 -4.65,-4.811 m -135.89,90.684 c 2,-0.971 4.919,-5.03 6.162,-6.813 1.137,-2.11 2.379,-4.217 3.626,-6.326 -1.19,-0.812 -5.95,5.838 -6.438,6.546 -1.134,2.162 -2.271,4.375 -3.35,6.593 m 31.688,-59.698 c -0.544,0.487 -1.136,1.028 -1.677,1.567 0.161,-0.106 0.382,-0.217 0.541,-0.326 -1.947,1.787 -3.679,3.787 -5.572,5.679 0.974,-0.592 -0.755,0.811 0.216,0.218 -0.266,0.27 -0.534,0.542 -0.812,0.81 -0.379,0.382 -0.753,0.812 -1.183,1.193 0.642,-0.329 0.05,0.59 -0.059,0.752 1.893,-0.973 3.84,-2.542 5.79,-3.674 8.053,-7.626 17.142,-12.871 24.764,-20.118 -1.299,0.434 -2.598,0.867 -3.838,1.298 -6.33,3.839 -12.384,8.06 -18.17,12.601 m -44.991,56.454 c -0.43,0.922 -0.813,1.784 -1.191,2.648 -0.866,1.299 -2.054,4.166 -2.703,5.68 -0.327,0.705 -0.65,1.408 -1.028,2.057 -0.216,0.486 -0.432,0.917 -0.598,1.403 -0.05,0 -0.103,0.162 -0.103,0.162 -2.598,7.195 -6.006,17.253 -6.329,24.823 3.408,-6.814 6.598,-16.225 9.733,-23.579 2.758,-6.489 6.812,-14.709 8.922,-21.141 -2.324,2.592 -4.542,5.242 -6.703,7.947 M 4,-13.517 c -0.328,-2.815 -0.542,-5.625 -0.701,-8.437 0,-0.594 0.05,-1.135 0.05,-1.729 0,-0.542 0.055,-1.138 0.055,-1.677 0,-0.053 0.054,-0.27 0.054,-0.27 0.324,-1.461 0.704,-2.868 1.083,-4.274 0,1.406 0.107,2.867 0.216,4.274 0.053,0.648 0.053,1.296 0.107,1.947 -0.216,1.297 -0.378,2.648 -0.543,3.946 0.058,0.379 0.058,0.759 0.111,1.134 -0.161,1.677 -0.323,3.409 -0.432,5.086 m 79.382,146.381 c -1.782,-0.971 -3.732,-2.214 -5.408,-3.404 -0.54,-0.596 -1.079,-1.191 -1.622,-1.731 0.219,0.055 0.381,0.109 0.597,0.164 0.323,0.161 0.701,0.323 1.025,0.487 2.814,1.674 5.735,3.135 8.652,4.648 1.786,1.622 4.168,2.921 6.116,4.49 -0.219,-0.054 -0.437,-0.054 -0.598,-0.108 -0.811,-0.38 -8.978,-4.221 -8.762,-4.546 m 78.576,10.981 c -3.845,-0.812 -8.328,-1.732 -11.954,-3.3 0,0 1.897,0.217 1.082,-0.215 0.92,0.107 1.789,0.27 2.649,0.377 -0.159,-0.107 -0.323,-0.162 -0.483,-0.27 1.188,0.163 2.431,0.27 3.673,0.379 1.029,0.378 4,0.649 5.246,0.865 1.734,0.596 3.463,1.19 5.247,1.783 -0.923,-0.052 -1.784,-0.052 -2.703,-0.107 0.164,0.055 0.324,0.107 0.537,0.164 -1.62,-0.057 -3.24,-0.164 -4.864,-0.271 0.164,0.107 0.323,0.162 0.487,0.214 0.377,0.11 0.701,0.271 1.083,0.381 M 126.429,140.6 c -2.382,-0.648 -4.814,-1.351 -7.192,-2.109 -1.354,-0.81 -5.192,-2.542 -6.762,-3.136 -0.268,-0.216 -0.539,-0.434 -0.866,-0.595 -0.913,-0.703 -1.835,-1.406 -2.755,-2.11 0.054,0 1.892,0.704 1.191,0.109 0.701,0.269 1.402,0.54 2.107,0.756 3.625,1.354 7.247,2.542 10.924,3.677 3.57,1.408 7.463,2.921 10.814,4.76 -0.38,-0.055 -0.757,-0.055 -1.08,-0.11 -1.787,-0.377 -3.514,-0.7 -5.247,-1.135 0.107,0.109 0.269,0.218 0.434,0.323 -0.867,-0.214 -1.729,-0.485 -2.598,-0.7 0.38,0.052 0.707,0.161 1.03,0.27 M 45.26,95.177 c 0.324,0.432 0.704,0.865 1.08,1.297 0.378,0.432 0.758,0.812 1.19,1.19 1.085,1.297 2.166,2.596 3.408,3.731 0.212,0.269 0.431,0.487 0.649,0.755 0.162,0.164 0.323,0.326 0.489,0.542 0.103,0.163 0.212,0.268 0.323,0.433 0.378,0.379 0.81,0.757 1.241,1.135 0.109,0.161 0.22,0.325 0.327,0.487 0.27,0.27 0.541,0.484 0.862,0.757 0.057,0.162 0.169,0.323 0.271,0.487 0.271,0.271 0.598,0.487 0.867,0.758 0.109,0.163 0.219,0.269 0.323,0.432 0.433,0.38 0.867,0.756 1.297,1.135 0.111,0.162 0.221,0.271 0.323,0.433 0.382,0.432 0.813,0.812 1.193,1.242 1.676,1.406 3.353,3.03 5.028,4.491 3.463,2.649 6.651,5.622 10.331,7.948 10.708,8.76 21.034,14.926 33.686,20.603 7.03,2.975 13.738,5.353 21.253,6.759 1.299,0.326 2.328,0.109 4,0.435 -6,-3.083 -13.624,-6.005 -19.895,-8.815 -1.354,-0.596 -2.651,-1.192 -3.948,-1.786 -22.389,-10.814 -38.179,-22.172 -56.08,-39.366 -5.03,-4.976 -9.679,-9.952 -14.273,-15.303 -3.247,-1.894 6.002,10.22 6.055,10.22 m 130.376,-315.97 c -1.565,0.217 -1.242,0.272 -2.539,0 h -1.892 -1.839 c -1.41,0.106 -4.382,0.377 -5.62,0.272 -22.015,2.594 -39.858,6.057 -60.245,15.249 -3.137,1.459 -8.818,4.219 -11.139,6.758 0.919,0.221 10.762,-3.677 12.166,-4.219 11.572,-4.214 21.951,-7.192 33.963,-9.731 10.218,-2.109 20.655,-3.622 31.09,-4.163 3.244,-0.163 6.543,-0.219 9.787,-0.269 9.192,-0.06 19.413,0.916 28.123,0.647 -9.033,-3.189 -18.603,-3.949 -28.123,-4.378 -1.242,-0.06 -2.489,-0.11 -3.732,-0.166 m 175.856,117.507 c 0.651,1.354 1.351,2.76 2.002,4.112 2.216,4.65 4.218,9.19 6.057,14.059 2.653,9.41 6.216,23.037 5.624,32.934 -0.159,-0.596 -0.378,-1.192 -0.541,-1.731 -0.105,-0.111 -13.192,-38.07 -15.522,-43.425 -1.62,-3.675 -3.299,-7.246 -5.082,-10.815 -0.597,-2.217 -6.272,-13.841 -3.896,-12.489 0.327,0.487 0.601,1.026 0.924,1.511 0.7,0.705 1.405,1.461 2.107,2.166 2.325,3.674 4.541,7.406 6.652,11.194 -0.055,-0.221 -0.109,-0.38 -0.163,-0.596 0.65,1.026 1.246,2.057 1.838,3.08 M 339,60.133 c 1.621,-1.784 5.625,-12.707 6.603,-15.572 0.105,-0.378 0.269,-0.812 0.374,-1.244 1.087,-4.76 2.543,-10.221 3.84,-14.979 -1.405,-1.947 -0.705,-6.975 -4.864,1.298 -1.948,4.054 -3.79,8.166 -5.734,12.22 -6.544,13.358 -12.982,23.956 -21.687,36.015 -5.029,6.708 -10.108,12.817 -15.463,19.196 -10.166,12.223 -7.627,13.033 4.327,4.328 C 320.999,89.823 330.568,76.683 339,60.133 m -0.759,-143.678 c -0.642,-1.409 -1.292,-2.812 -2.002,-4.221 0.058,0.164 0.058,0.328 0.058,0.542 -0.595,-1.3 -1.297,-2.596 -1.947,-3.839 -0.487,-0.864 -0.974,-1.783 -1.461,-2.648 0.059,0.159 0.059,0.378 0.113,0.539 -4.222,-6.002 -9.792,-15.248 -5.733,-1.406 0.542,1.946 1.189,3.84 1.78,5.732 7.522,23.145 11.195,38.825 13.574,63.216 0.164,1.838 0.328,3.676 0.542,5.516 1.351,13.138 0.168,27.306 -2.107,40.232 -2.489,14.978 4.974,-3.624 5.946,-6.596 4.219,-13.522 5.466,-25.037 5.298,-39.152 -0.86,-21.523 -4.756,-38.61 -14.061,-57.915 m 0.273,82.681 c -0.164,0.65 -0.374,1.57 0.109,0.539 0.109,-0.485 0.214,-0.972 0.268,-1.459 0.815,-8.218 1.138,-15.626 0.869,-23.846 -0.382,-7.138 -1.41,-19.306 -4.113,-25.902 -0.537,7.731 0.382,17.572 0.218,25.902 -0.218,7.085 -0.814,13.571 -2.216,20.549 -0.974,10.977 -5.301,21.143 -8.815,31.472 -0.973,2.76 -1.947,5.461 -2.975,8.166 -9.624,24.227 -8.974,30.172 5.57,3.783 0.163,-0.377 0.382,-0.809 0.596,-1.187 1.675,-3.299 3.194,-6.113 4.487,-9.572 3.248,-8.978 4.978,-18.928 6.002,-28.445 M 19.681,-131.076 c -6.869,10.214 -12.002,19.516 -16.98,30.822 -10.002,24.224 -14.168,44.341 -14.114,70.568 0.489,-2.003 0.974,-4.003 1.514,-6.004 2.27,-23.252 5.949,-41.962 15.469,-63.375 0.109,-0.27 0.27,-0.597 0.373,-0.865 0.546,-1.299 1.031,-2.596 1.57,-3.895 5.192,-10.329 9.952,-19.087 16.12,-28.93 0.43,-0.919 0.81,-1.786 1.24,-2.707 -0.43,0.378 -0.919,0.814 -1.352,1.19 1.295,-2.214 -1.838,0.271 -2.271,0.648 -0.27,0.49 -0.597,0.976 -0.918,1.52 -0.219,0.321 -0.435,0.648 -0.651,1.028 m 164.556,-81.226 c 1.134,-0.217 -1.566,-0.376 -1.843,-0.433 h 1.843 c -0.6,-0.162 -1.192,-0.323 -1.843,-0.484 -0.97,-0.057 -1.997,-0.108 -3.026,-0.217 l -1.784,-0.059 c -0.427,0 -0.81,0.059 -1.242,0.059 -2.22,-0.059 -4.436,-0.11 -6.653,-0.11 -19.794,1.783 -39.207,6.709 -57.43,14.654 -0.862,0.109 -1.351,0.489 -2.214,0.599 -0.487,0.268 -1.03,0.48 -1.517,0.7 -0.38,0.162 -0.701,0.323 -1.024,0.489 -0.109,0.051 -0.437,0.16 -0.489,0.212 -1.677,0.598 -3.352,1.247 -4.978,1.95 -3.024,0.757 -5.944,2.271 -8.922,3.188 -1.565,0.811 -4.214,2.109 -5.84,2.759 -0.323,0.214 -0.649,0.433 -0.972,0.649 -7.679,4.002 -15.033,8.491 -22.011,13.517 -5.731,4.76 -10.864,10.061 -15.952,15.469 1.788,-1.08 3.57,-2.541 5.409,-3.569 0.866,-0.867 1.679,-1.461 2.598,-2.327 4.161,-2.756 10.273,-8.058 14.596,-11.357 5.248,-3.514 10.388,-6.648 15.683,-9.949 6.168,-2.109 14.548,-6.761 20.712,-9.57 9.089,-4.112 18.061,-7.734 27.742,-10.332 12.33,-3.19 25.035,-4.323 37.745,-4.271 2.22,-0.161 4.382,-0.268 6.543,-0.38 1.247,-0.05 2.439,-0.05 3.627,-0.109 -0.487,-0.161 1.024,-0.972 1.242,-1.078 M 31.253,-117.56 c 0.812,-1.192 0.323,-0.703 -0.269,-0.162 -4.164,7.299 -7.788,14.869 -10.871,22.657 -0.109,0.703 -0.216,1.354 -0.323,2.057 v 0.214 c 0,-0.052 0.107,-0.164 0.107,-0.164 9.301,-13.948 15.249,-26.766 25.958,-41.367 0.109,-0.216 0.162,-0.378 0.214,-0.539 0.057,-0.162 0.166,-0.323 0.217,-0.542 -5.3,3.95 -11.352,12.383 -15.033,17.846 M 11.03,-58.942 c -0.218,0.486 -0.434,0.973 -0.705,1.46 0,0.38 -0.053,0.757 -0.107,1.083 -0.159,0.323 -0.325,0.701 -0.487,1.026 -0.161,0.705 -0.327,1.406 -0.43,2.109 -1.087,9.463 -1.788,18.061 -1.732,27.634 0.053,3.405 0.215,6.759 0.542,10.168 0,0.917 -0.059,1.836 -0.059,2.755 0.221,1.46 0.271,2.921 0.437,4.379 0.053,0.544 0.105,1.084 0.105,1.623 -0.052,0.378 -0.105,0.76 -0.105,1.083 0.053,0.377 0.105,0.755 0.161,1.081 0,0.216 -0.056,0.38 -0.056,0.541 0,0.216 -0.052,0.378 -0.105,0.594 0.105,0.541 0.214,1.081 0.271,1.622 0.375,6.112 -0.271,12.169 -0.218,18.278 1.08,5.515 2.432,10.978 4.001,16.386 1.407,3.461 2.811,6.76 4.433,10.111 0.275,0.596 0.544,1.192 0.867,1.784 1.242,1.679 2.27,3.461 3.569,5.083 C 20.814,47.157 20.063,44.561 19.354,41.965 16.059,30.5 13.301,20.55 11.19,8.706 9.301,-3.35 9.03,-13.463 9.784,-25.63 c 0.327,-4.164 0.757,-8.11 1.356,-12.224 0.161,-6.919 0.7,-13.893 1.731,-20.763 -0.112,-3.027 -0.65,-3.027 -1.841,-0.325 m 5.461,6.814 c -1.026,9.03 -1.458,17.415 -1.458,26.498 0.161,15.087 1.57,27.794 4.593,42.558 1.786,8.002 3.409,14.546 6.599,22.118 1.08,2.541 2.271,4.919 3.569,7.351 -0.109,-0.325 -0.161,-0.7 -0.271,-1.026 0.162,0.326 0.38,0.596 0.542,0.921 0.594,0.756 -0.974,-5.192 -1.083,-5.788 -0.327,-0.648 -0.596,-1.622 -0.81,-2.271 -0.596,-2.163 -1.406,-4.868 -1.788,-7.03 -0.268,-0.703 -1.026,-2.648 -1.026,-3.351 -0.107,-0.487 -0.267,-0.974 -0.432,-1.406 -0.651,-1.787 -1.19,-3.948 -1.62,-5.786 -0.595,-1.732 -1.083,-3.57 -1.571,-5.356 V 14.819 C 21.465,14.007 20.711,11.087 20.764,10.385 20.711,10.062 20.602,9.736 20.493,9.411 20.384,8.924 20.275,8.437 20.113,7.952 c -0.432,-6.869 -3.03,-15.303 -2.38,-22.388 -0.052,-0.54 -0.052,-1.026 -0.052,-1.57 -0.109,-1.404 -0.161,-2.758 -0.216,-4.161 0.055,-0.165 0.107,-0.326 0.107,-0.542 v -4.921 c 0.161,-9.247 0.919,-17.361 2.491,-26.39 0.917,-4.272 2.16,-8.488 3.081,-12.709 0.489,-0.81 0.377,-1.57 0.862,-2.379 0.758,-3.516 2.649,-11.138 4.11,-14.166 0.759,-2.433 1.46,-4.868 2.22,-7.302 0.162,-0.593 0.378,-1.187 0.592,-1.784 -0.43,0.54 -0.863,1.027 -1.352,1.459 -1.46,1.463 -2.485,2.38 -3.784,4.059 -0.434,1.081 -1.081,2.7 -1.679,3.675 -0.159,0.486 -0.321,0.973 -0.539,1.405 -0.107,0.326 -0.161,0.651 -0.268,0.974 -0.162,0.487 -0.271,0.921 -0.433,1.409 -0.921,1.618 -1.299,3.62 -2,5.244 -0.109,0.325 -0.162,0.646 -0.271,0.972 -0.109,0.489 -0.218,0.974 -0.327,1.515 -0.271,0.592 -0.539,1.242 -0.755,1.891 -0.166,0.812 -0.378,1.679 -0.544,2.489 -0.053,0.162 -0.162,0.325 -0.212,0.487 -0.703,3.515 -1.244,7.083 -1.731,10.653 -0.162,0.701 -0.38,1.351 -0.542,2 m 269.842,157.416 c -0.269,0.269 -0.492,0.539 -0.76,0.812 -0.105,0.053 -0.269,0.162 -0.428,0.216 1.947,-1.731 3.891,-3.517 5.784,-5.356 0.433,-0.325 0.81,-0.648 1.242,-0.971 0.324,-0.164 0.651,-0.325 0.974,-0.489 0.219,-0.269 0.487,-0.539 0.701,-0.754 1.838,-1.517 3.626,-2.921 5.406,-4.491 2.817,-2.486 5.251,-4.921 7.686,-7.788 8.486,-8.867 15.299,-19.736 21.628,-30.117 2.594,-5.3 4.76,-10.278 6.385,-15.898 -2.762,3.458 -3.195,1.461 -6.385,5.19 -9.679,17.574 -19.253,30.284 -33.474,44.452 -3.248,3.135 -6.488,6.056 -9.947,8.975 -13.792,6.977 -28.664,17.088 -42.615,24.929 -1.675,0.976 -3.408,1.947 -5.193,2.921 -12.323,7.031 3.245,3.945 7.626,2.703 7.081,-2.271 12.874,-5.085 19.309,-8.923 7.622,-4.649 15.463,-9.354 22.061,-15.411 M 126.859,-201.756 c 9.951,-3.409 19.252,-5.081 29.747,-5.949 1.184,0.11 2.317,0.271 3.509,0.431 -8.974,1.891 -18.437,3.569 -27.198,6.273 -3.188,0.543 -6.708,1.46 -9.787,2.377 -1.137,0.059 -2.325,0.163 -3.463,0.271 0.324,-0.161 0.649,-0.32 1.031,-0.539 0.323,-0.109 0.701,-0.271 1.029,-0.374 -0.166,0 -0.38,0.051 -0.599,0.051 0.38,-0.162 0.703,-0.378 1.031,-0.539 0.701,-0.271 1.402,-0.541 2.109,-0.811 -0.166,0 -0.38,0.051 -0.599,0.051 1.08,-0.433 2.11,-0.862 3.19,-1.242 m -88.901,60.942 c -12.545,14.653 -20.167,25.904 -27.524,43.856 -0.755,1.95 -1.46,3.95 -2.161,5.95 -1.461,3.57 -9.952,31.253 -9.952,31.31 -0.052,-0.214 -0.052,-0.432 -0.052,-0.596 1.03,-12.166 5.301,-26.386 10.325,-37.474 0.218,-0.433 0.436,-0.921 0.648,-1.354 0.162,-0.378 0.328,-0.753 0.437,-1.132 0.646,-0.868 1.404,-2.652 1.834,-3.625 2.002,-3.081 4.168,-7.784 6.168,-11.251 0.11,-0.103 0.271,-0.269 0.38,-0.43 1.513,-2.433 2.919,-5.081 4.542,-7.404 0.482,-0.815 0.971,-1.627 1.46,-2.492 0.109,-0.107 0.27,-0.268 0.432,-0.43 0.487,-0.815 0.972,-1.624 1.459,-2.437 2.052,-2.753 4,-5.678 6.162,-8.329 0.167,-0.159 0.329,-0.266 0.488,-0.374 0.92,-1.246 1.841,-2.436 2.76,-3.679 0.162,-0.109 0.321,-0.218 0.487,-0.323 0.972,-1.189 1.893,-2.38 2.865,-3.569 0.161,-0.11 0.327,-0.271 0.489,-0.378 3.242,-3.732 6.433,-7.355 10.054,-10.762 0.437,-0.38 0.976,-0.867 1.459,-1.19 0.812,-0.865 1.622,-1.513 2.491,-2.38 0.97,-0.594 2,-1.133 3.029,-1.732 -0.052,0.057 -1.352,1.571 -0.489,1.138 -0.271,0.271 -0.54,0.541 -0.811,0.811 -1.078,1.622 -2.81,3.463 -4.108,4.923 -2.112,2.377 -4.163,4.701 -6.221,7.133 -1.835,1.948 -4.055,4.218 -5.675,6.277 -0.65,0.485 -1.246,0.971 -1.895,1.402 0.434,-0.539 0.54,-0.917 0.919,-1.459 m 133.296,294.877 c -4.968,-0.485 -11.517,-1.297 -16.272,-3.081 0.268,-0.054 2.216,-0.268 1.784,-0.539 1.838,0.16 3.731,0.323 5.62,0.432 0.541,0.053 1.087,0.162 1.679,0.269 1.242,0.323 2.598,0.486 3.891,0.812 3.194,0.216 8.222,1.242 11.412,1.945 -0.16,0.057 -0.382,0.11 -0.541,0.162 -0.974,0.057 -1.948,0.057 -2.922,0.057 0.219,0.107 0.383,0.161 0.6,0.214 -0.977,0 -1.947,0 -2.921,0.054 -0.6,-0.054 -1.137,-0.161 -1.733,-0.214 -0.164,-0.054 -0.374,-0.054 -0.597,-0.111 M 57.371,87.767 c 1.299,1.134 2.598,2.327 3.897,3.462 0.212,0.162 0.483,0.325 0.756,0.487 l 0.107,0.053 c 0,-0.053 0,-0.11 -0.052,-0.11 -0.055,-0.594 -3.518,-5.406 -4.11,-6.541 -0.432,-0.539 -0.869,-1.081 -1.299,-1.625 -0.323,-0.375 -0.65,-0.81 -0.972,-1.187 -2.489,-2.705 -4.921,-5.948 -7.412,-8.489 -0.269,-0.216 -0.487,-0.489 -0.756,-0.704 -0.323,0.215 2.705,6.164 3.029,6.812 0.541,0.649 1.89,2.164 2.218,2.922 1.564,1.62 3.031,3.297 4.594,4.92 m 8.006,17.575 c -3.028,-2.65 -5.897,-5.353 -8.761,-8.275 -4.437,-4.648 -14.439,-15.788 -15.95,-22.115 -0.49,-1.677 2.7,1.891 2.753,1.945 -0.432,-1.026 0.65,0.81 0.27,-0.214 5.14,6.164 10.331,11.734 15.848,17.52 4.651,4.866 8.65,9.247 12.762,14.598 -0.218,-0.052 -0.38,-0.052 -0.596,-0.107 -0.542,-0.432 -2.542,-1.838 -2.324,-1.404 -0.27,-0.218 -0.541,-0.434 -0.869,-0.65 -0.377,-0.324 -0.809,-0.649 -1.239,-1.027 0.43,0.649 0.862,1.243 1.298,1.839 -1.03,-0.758 -2.109,-1.406 -3.192,-2.11 m 206.357,29.308 c -11.089,3.081 7.296,-9.03 8.16,-9.626 10.93,-6.38 19.74,-12.437 29.26,-20.871 6.484,-5.893 11.622,-11.411 17.032,-18.335 7.677,-10.002 14.166,-19.897 20.114,-31.038 1.46,-2.701 2.812,-5.408 4.114,-8.162 11.249,-25.094 14.489,-42.722 17.952,-69.545 2.76,-14.494 0.919,28.879 0.268,32.879 -2.758,14.546 -6.594,25.578 -12.701,38.989 -2.279,4.867 -4.65,9.624 -7.198,14.384 -7.732,14.493 -17.252,29.094 -28.878,40.771 -1.839,1.786 -3.673,3.517 -5.57,5.194 -4.109,3.567 -8.218,6.867 -12.541,10.221 -5.461,4.216 -34.339,25.307 -40.291,23.144 -0.646,0 2.704,-2.003 3.354,-2.378 -0.865,0.16 2.43,-1.841 2.812,-2.218 -0.163,0.052 -0.382,0.107 -0.541,0.161 0.969,-0.594 1.947,-1.242 2.92,-1.893 -0.376,0.107 -0.758,0.218 -1.187,0.325 0.537,-0.325 1.024,-0.595 1.507,-0.919 -0.369,0.109 -0.751,0.216 -1.133,0.324 0.113,-0.162 0.272,-0.271 0.437,-0.433 0.696,-0.325 1.406,-0.648 2.11,-0.974"
             style="fill:#d59742;fill-opacity:1;fill-rule:nonzero;stroke:none"
             id="path267" /></g></g></g></g></svg>
